<?xml version="1.0" standalone="no"?>
<!DOCTYPE svg PUBLIC "-//W3C//DTD SVG 20010904//EN"
 "http://www.w3.org/TR/2001/REC-SVG-20010904/DTD/svg10.dtd">
<svg version="1.0" xmlns="http://www.w3.org/2000/svg"
 width="700.000000pt" height="700.000000pt" viewBox="0 0 700.000000 700.000000"
 preserveAspectRatio="xMidYMid meet">
<metadata>
Created by potrace 1.11, written by Peter Selinger 2001-2013
</metadata>
<g transform="translate(0.000000,700.000000) scale(0.100000,-0.100000)"
fill="#000000" stroke="none">
<path d="M1181 6113 c-108 -18 -173 -39 -266 -87 -167 -86 -286 -203 -374
-367 -55 -104 -87 -207 -97 -319 -9 -87 -9 -2715 0 -2805 20 -225 137 -440
321 -591 95 -77 210 -134 345 -171 61 -17 193 -18 2395 -18 l2330 0 90 28
c273 86 469 263 576 522 7 17 13 32 14 35 25 83 30 106 41 180 9 71 10 2722 0
2820 -40 397 -343 712 -746 776 -25 4 -1060 8 -2302 8 -1706 1 -2273 -2 -2327
-11z m4586 -434 c80 -15 170 -64 229 -124 67 -69 103 -139 118 -226 8 -47 11
-463 11 -1420 -1 -1276 -2 -1357 -19 -1407 -40 -119 -117 -212 -216 -262 -51
-25 -67 -31 -140 -45 -27 -6 -4475 -7 -4500 -2 -67 14 -92 23 -140 48 -105 54
-181 149 -217 268 -16 51 -17 172 -17 1431 1 1539 -5 1427 73 1547 64 99 178
175 289 192 69 11 4473 10 4529 0z"/>
<path d="M1897 859 c-193 -65 -192 -332 1 -409 28 -11 323 -13 1580 -13 851 0
1568 3 1593 7 120 18 203 150 169 270 -15 56 -60 111 -113 138 l-42 22 -1570
1 c-1424 0 -1574 -1 -1618 -16z"/>
</g>
</svg>
